<svg width="16" height="16" viewBox="0 0 16 16" fill="none" xmlns="http://www.w3.org/2000/svg">
<path d="M7.99992 1.33334C4.32659 1.33334 1.33325 4.32668 1.33325 8.00001C1.33325 11.6733 4.32659 14.6667 7.99992 14.6667C11.6733 14.6667 14.6666 11.6733 14.6666 8.00001C14.6666 4.32668 11.6733 1.33334 7.99992 1.33334ZM10.6666 8.50001H8.49992V10.6667C8.49992 10.94 8.27325 11.1667 7.99992 11.1667C7.72659 11.1667 7.49992 10.94 7.49992 10.6667V8.50001H5.33325C5.05992 8.50001 4.83325 8.27334 4.83325 8.00001C4.83325 7.72668 5.05992 7.50001 5.33325 7.50001H7.49992V5.33334C7.49992 5.06001 7.72659 4.83334 7.99992 4.83334C8.27325 4.83334 8.49992 5.06001 8.49992 5.33334V7.50001H10.6666C10.9399 7.50001 11.1666 7.72668 11.1666 8.00001C11.1666 8.27334 10.9399 8.50001 10.6666 8.50001Z" fill="white"/>
</svg>
